<svg class="gatekeeper gatekeeper-hrz"
     xmlns="http://www.w3.org/2000/svg"
     x="0px" y="0px"
     viewBox="0 0 1980.6 400">
    <path class="gatekeeper-icon gatekeeper-logo" d="M200,105.2c-5.1,0-10.1,0.4-15.1,1h-0.1c-5.8,0.7-11.6-2.2-13.7-7.6l-0.5-1.3l-12.7-31.8l-0.1-0.4
		c-2.2-5.6,0.1-12,5.3-14.4c0.7-0.3,1.4-0.6,2.1-0.7C176.4,47.4,188,46,200,46s23.6,1.3,34.9,3.9c0.7,0.2,1.5,0.4,2.1,0.7
		c5.2,2.4,7.6,8.8,5.3,14.4l-0.1,0.4l-12.7,31.9l-0.5,1.3c-2.1,5.4-7.9,8.4-13.7,7.6h-0.1C210.2,105.7,205.2,105.3,200,105.2
		L200,105.2L200,105.2z M81.6,389.5h260.6c26.1,0,47.4-21.2,47.4-47.4v-29.6c0-8.7-2.3-16.7-6.4-23.7c4-7,6.4-15,6.4-23.7v-29.6
		c0-8.7-2.3-16.7-6.4-23.7c4.3-7.6,6.6-16.5,5.8-26.4c-1.6-21.2-6.7-41.4-14.7-60.1c-4.5-10.6-12-18.1-20.7-22.7
		c-0.4-9.8-4.1-19.8-11.7-28.3c-12.4-14-26.9-26.2-43-36c-9.8-6-20.2-7.9-30-6.5c-6.1-7.8-14.8-13.8-26-16.4
		c-13.8-3.3-28.1-5-42.8-5s-29,1.7-42.9,4.9c-11.2,2.6-19.9,8.6-26,16.4c-9.8-1.3-20.2,0.5-30,6.5c-16.1,9.9-30.6,22.1-43,36
		c-7.5,8.6-11.2,18.5-11.7,28.3c-8.7,4.6-16.2,12.1-20.7,22.7c-8,18.7-13.1,39-14.7,60.2c-0.7,9.9,1.5,18.8,5.8,26.4
		c-4,7-6.3,15-6.3,23.7v29.6c0,8.7,2.3,16.7,6.4,23.7c-4.1,7-6.4,15-6.4,23.7v29.6c0,26.1,21.2,47.4,47.4,47.4H81.6L81.6,389.5z
		 M285.4,132.8c-4.7,3.2-11,2.4-15.3-1.2l-0.1-0.1c-4.1-3.6-8.4-6.8-13-9.7l-0.1-0.2c-4.7-3.1-7.1-8.7-5.7-14.1
		c0.1-0.4,0.3-0.9,0.4-1.3l12.7-31.9l0.1-0.4c2.4-5.5,8.4-8.2,13.8-6.4c0.7,0.2,1.4,0.6,2.1,1c13.1,8,24.9,17.9,34.9,29.3
		c0.5,0.6,1,1.3,1.3,1.9c2.8,5,1.1,11.4-3.9,14.7l-0.8,0.6l-24.1,16.1L285.4,132.8L285.4,132.8L285.4,132.8z M296.8,167.1l-0.1-0.3
		c-2.1-4.8-1.3-10.4,2.1-14.1c0.7-0.7,1.3-1.3,2.1-1.9l24.1-16.1c0.3-0.2,0.6-0.4,0.9-0.5c5-2.8,11.3-1.5,14.5,3
		c0.4,0.6,0.8,1.3,1.1,2c6.5,15.2,10.7,31.6,12,48.9c0,0.4,0.1,0.9,0,1.4c-0.3,5.9-5.3,10.4-11.4,10.4h-25.6
		c-5.8,0-10.6-4.2-12.1-9.8c-0.1-0.2-0.1-0.5-0.1-0.7C302.6,181.7,300,174.3,296.8,167.1L296.8,167.1L296.8,167.1z M306.6,235.5
		c0-0.4,0-0.7,0.1-1c0.4-5.4,4.6-9.9,9.9-10.7c0.6-0.1,1.3-0.1,1.9-0.1h23.7c6,0,11,4.5,11.8,10.4c0.1,0.5,0.1,1,0.1,1.5v29.6
		c0,0.5,0,1-0.1,1.5c-0.7,5.9-5.7,10.4-11.8,10.4h-23.8c-6.1,0-11-4.5-11.8-10.4c-0.1-0.4-0.1-1-0.1-1.5L306.6,235.5L306.6,235.5z
		 M306.6,312.5c0-0.5,0-1,0.1-1.5c0.7-5.9,5.7-10.4,11.8-10.4h23.7c6.1,0,11,4.5,11.8,10.4c0.1,0.4,0.1,1,0.1,1.5v29.6
		c0,6.5-5.3,11.8-11.8,11.8h-23.7c-6.5,0-11.8-5.3-11.8-11.8V312.5z M119.8,68.6c0.7-0.4,1.3-0.7,2.1-1c5.4-1.9,11.5,0.9,13.8,6.4
		l0.1,0.4l12.7,31.9c0.1,0.4,0.3,0.9,0.4,1.3c1.4,5.3-1,11-5.7,14.1l-0.2,0.2c-4.6,2.9-9,6.1-13,9.7l-0.1,0.1
		c-4.4,3.6-10.6,4.4-15.3,1.2l-2.4-1.6l-24.1-16.1l-0.8-0.6c-5-3.3-6.7-9.8-3.8-14.7c0.4-0.7,0.8-1.3,1.3-1.9
		C94.9,86.6,106.7,76.7,119.8,68.6L119.8,68.6L119.8,68.6z M58.5,139.4c0.3-0.7,0.7-1.4,1.1-2c3.2-4.5,9.5-5.9,14.5-3
		c0.3,0.1,0.6,0.4,0.9,0.5l24.1,16.1c0.8,0.5,1.6,1.2,2.2,1.9c3.4,3.7,4.2,9.3,2.1,14.1l-0.2,0.3c-3.3,7.1-5.8,14.6-7.5,22.4
		c-0.1,0.2-0.1,0.5-0.2,0.7c-1.5,5.6-6.4,9.8-12.1,9.8H57.9c-6.1,0-11.1-4.6-11.4-10.4v-1.4C47.8,171,51.9,154.6,58.5,139.4
		L58.5,139.4z M46,235.5c0-0.5,0-1,0.1-1.5c0.7-5.9,5.7-10.4,11.8-10.4h23.7c0.7,0,1.3,0.1,1.9,0.1c5.3,0.9,9.5,5.3,9.9,10.7
		c0,0.4,0.1,0.7,0.1,1v29.6c0,0.5,0,1-0.1,1.5c-0.7,5.9-5.7,10.4-11.8,10.4H57.9c-6.1,0-11-4.5-11.8-10.4c-0.1-0.4-0.1-1-0.1-1.5
		V235.5L46,235.5z M46,312.5c0-0.5,0-1,0.1-1.5c0.7-5.9,5.7-10.4,11.8-10.4h23.7c6.1,0,11,4.5,11.8,10.4c0.1,0.4,0.1,1,0.1,1.5v29.6
		c0,6.5-5.3,11.8-11.8,11.8H57.9c-6.5,0-11.8-5.3-11.8-11.8C46,342.1,46,312.5,46,312.5z M211.8,152.6v189.5
		c0,6.5-5.3,11.8-11.8,11.8s-11.8-5.3-11.8-11.8V152.6c0-6.5,5.3-11.8,11.8-11.8S211.8,146.1,211.8,152.6L211.8,152.6z M164.5,176.3
		v165.8c0,6.5-5.3,11.8-11.8,11.8s-11.8-5.3-11.8-11.8V176.3c0-6.5,5.3-11.8,11.8-11.8S164.5,169.8,164.5,176.3L164.5,176.3z
		 M259.2,176.3v165.8c0,6.5-5.3,11.8-11.8,11.8s-11.8-5.3-11.8-11.8V176.3c0-6.5,5.3-11.8,11.8-11.8S259.2,169.8,259.2,176.3
		L259.2,176.3z"/>
    <path class="gatekeeper-logo" d="M517.2,208.4h71.7v97.8c-11.7,3.8-23,6.5-33.8,8.1c-10.8,1.6-22.5,2.4-35,2.4c-29.5,0-52.2-8.7-68.2-26.2
			c-16-17.5-24-42.1-24-73.9c0-31.4,9-55.9,27.1-73.6c18-17.7,42.9-26.6,74.5-26.6c20.3,0,39.6,3.9,57.8,11.7l-11.2,26.5
			c-15.8-7.3-31.6-10.9-47.5-10.9c-20.8,0-37.2,6.5-49.3,19.6c-12.1,13.1-18.1,30.9-18.1,53.6c0,23.8,5.4,41.9,16.3,54.3
			c10.9,12.4,26.5,18.6,47,18.6c10.3,0,21.3-1.3,33.1-3.9v-50.2h-40.4V208.4z"/>
    <path class="gatekeeper-logo" d="M724.5,314.1l-6.3-20.5h-1.1c-7.1,9-14.3,15.1-21.5,18.3c-7.2,3.2-16.4,4.9-27.7,4.9
			c-14.5,0-25.8-3.9-33.9-11.7c-8.1-7.8-12.2-18.9-12.2-33.2c0-15.2,5.6-26.7,16.9-34.4c11.3-7.7,28.5-11.9,51.6-12.7l25.5-0.8v-7.9
			c0-9.4-2.2-16.5-6.6-21.1c-4.4-4.7-11.2-7-20.5-7c-7.6,0-14.8,1.1-21.7,3.3c-6.9,2.2-13.6,4.8-20,7.9L637,176.8
			c8-4.2,16.7-7.4,26.3-9.5c9.5-2.2,18.5-3.3,26.9-3.3c18.7,0,32.9,4.1,42.5,12.3c9.6,8.2,14.3,21,14.3,38.5v99.3H724.5z
			 M677.9,292.7c11.4,0,20.5-3.2,27.4-9.5c6.9-6.4,10.3-15.3,10.3-26.7v-12.8l-18.9,0.8c-14.8,0.5-25.5,3-32.2,7.4
			c-6.7,4.4-10.1,11.1-10.1,20.2c0,6.6,2,11.7,5.9,15.3C664.2,290.9,670.1,292.7,677.9,292.7z"/>
    <path class="gatekeeper-logo" d="M845.6,291.4c7.6,0,15.3-1.2,22.9-3.6v23.6c-3.5,1.5-7.9,2.8-13.4,3.8c-5.5,1-11.1,1.5-17,1.5
			c-29.7,0-44.5-15.6-44.5-46.9v-79.4h-20.1v-13.9l21.6-11.5l10.7-31.2H825v32.8h42v23.7h-42v78.9c0,7.6,1.9,13.1,5.7,16.7
			C834.5,289.6,839.4,291.4,845.6,291.4z"/>
    <path class="gatekeeper-logo" d="M962.3,316.7c-22.9,0-40.9-6.7-53.8-20.1c-12.9-13.4-19.4-31.8-19.4-55.2c0-24.1,6-43,18-56.8
			c12-13.8,28.5-20.7,49.4-20.7c19.5,0,34.8,5.9,46.1,17.7c11.3,11.8,16.9,28.1,16.9,48.8v16.9h-98.2c0.4,14.3,4.3,25.3,11.6,33
			c7.3,7.7,17.5,11.5,30.8,11.5c8.7,0,16.8-0.8,24.3-2.5c7.5-1.6,15.6-4.4,24.2-8.2v25.5c-7.6,3.6-15.4,6.2-23.2,7.7
			C981.3,316,972.4,316.7,962.3,316.7z M956.6,187.7c-10,0-17.9,3.2-23.9,9.5c-6,6.3-9.6,15.5-10.7,27.6h66.9
			c-0.2-12.2-3.1-21.4-8.8-27.7C974.4,190.8,966.5,187.7,956.6,187.7z"/>
    <path class="gatekeeper-logo" d="M1207.3,314.1h-36.9l-61.2-88.2l-18.8,15.3v72.9h-31.9V119.2h31.9v93c8.7-10.7,17.4-20.9,26-30.8l52.6-62.2
			h36.3c-34,40-58.4,68.5-73.2,85.4L1207.3,314.1z"/>
    <path class="gatekeeper-logo" d="M1294.1,316.7c-22.9,0-40.9-6.7-53.8-20.1c-12.9-13.4-19.4-31.8-19.4-55.2c0-24.1,6-43,18-56.8
			c12-13.8,28.5-20.7,49.4-20.7c19.5,0,34.8,5.9,46.1,17.7c11.3,11.8,16.9,28.1,16.9,48.8v16.9h-98.2c0.4,14.3,4.3,25.3,11.6,33
			c7.3,7.7,17.5,11.5,30.8,11.5c8.7,0,16.8-0.8,24.3-2.5c7.5-1.6,15.6-4.4,24.2-8.2v25.5c-7.6,3.6-15.4,6.2-23.2,7.7
			C1313,316,1304.1,316.7,1294.1,316.7z M1288.3,187.7c-10,0-17.9,3.2-23.9,9.5c-6,6.3-9.6,15.5-10.7,27.6h66.9
			c-0.2-12.2-3.1-21.4-8.8-27.7C1306.1,190.8,1298.3,187.7,1288.3,187.7z"/>
    <path class="gatekeeper-logo" d="M1451.4,316.7c-22.9,0-40.9-6.7-53.8-20.1c-12.9-13.4-19.4-31.8-19.4-55.2c0-24.1,6-43,18-56.8
			c12-13.8,28.5-20.7,49.4-20.7c19.5,0,34.8,5.9,46.1,17.7c11.3,11.8,16.9,28.1,16.9,48.8v16.9h-98.2c0.4,14.3,4.3,25.3,11.6,33
			c7.3,7.7,17.5,11.5,30.8,11.5c8.7,0,16.8-0.8,24.3-2.5c7.5-1.6,15.6-4.4,24.2-8.2v25.5c-7.6,3.6-15.4,6.2-23.2,7.7
			C1470.3,316,1461.4,316.7,1451.4,316.7z M1445.6,187.7c-10,0-17.9,3.2-23.9,9.5c-6,6.3-9.6,15.5-10.7,27.6h66.9
			c-0.2-12.2-3.1-21.4-8.8-27.7C1463.4,190.8,1455.6,187.7,1445.6,187.7z"/>
    <path class="gatekeeper-logo" d="M1619,316.7c-18.7,0-33.1-6.7-43.5-20.1h-1.9c1.2,12.4,1.9,20,1.9,22.7v60.4h-31.3v-213h25.3
			c0.7,2.8,2.2,9.3,4.4,19.7h1.6c9.8-14.9,24.4-22.4,44-22.4c18.4,0,32.7,6.7,43,20c10.3,13.3,15.4,32,15.4,56.1
			c0,24.1-5.2,42.9-15.7,56.4C1651.8,310,1637.4,316.7,1619,316.7z M1611.4,189.6c-12.4,0-21.5,3.6-27.3,10.9
			c-5.7,7.3-8.6,18.9-8.6,34.9v4.7c0,17.9,2.8,30.9,8.5,39c5.7,8,15,12.1,27.9,12.1c10.8,0,19.2-4.4,25.1-13.3
			c5.9-8.9,8.8-21.5,8.8-38c0-16.5-2.9-29-8.7-37.5C1631.3,193.8,1622.7,189.6,1611.4,189.6z"/>
    <path class="gatekeeper-logo" d="M1778.7,316.7c-22.9,0-40.9-6.7-53.8-20.1c-12.9-13.4-19.4-31.8-19.4-55.2c0-24.1,6-43,18-56.8
			c12-13.8,28.5-20.7,49.4-20.7c19.5,0,34.8,5.9,46.1,17.7c11.3,11.8,16.9,28.1,16.9,48.8v16.9h-98.2c0.4,14.3,4.3,25.3,11.6,33
			c7.3,7.7,17.5,11.5,30.8,11.5c8.7,0,16.8-0.8,24.3-2.5c7.5-1.6,15.6-4.4,24.2-8.2v25.5c-7.6,3.6-15.4,6.2-23.2,7.7
			C1797.7,316,1788.7,316.7,1778.7,316.7z M1773,187.7c-10,0-17.9,3.2-23.9,9.5c-6,6.3-9.6,15.5-10.7,27.6h66.9
			c-0.2-12.2-3.1-21.4-8.8-27.7C1790.7,190.8,1782.9,187.7,1773,187.7z"/>
    <path class="gatekeeper-logo" d="M1946.4,164c6.3,0,11.5,0.4,15.6,1.3l-3.1,29.2c-4.4-1.1-9.1-1.6-13.9-1.6c-12.5,0-22.7,4.1-30.5,12.3
			c-7.8,8.2-11.7,18.8-11.7,31.9v77h-31.3V166.6h24.5l4.1,26h1.6c4.9-8.8,11.3-15.8,19.1-20.9C1928.9,166.6,1937.3,164,1946.4,164z"
    />
</svg>
