<?xml version="1.0" encoding="utf-8"?>
<!-- Generator: Adobe Illustrator 28.1.0, SVG Export Plug-In . SVG Version: 6.00 Build 0)  -->
<svg version="1.1" id="Layer_1" xmlns="http://www.w3.org/2000/svg" xmlns:xlink="http://www.w3.org/1999/xlink" x="0px" y="0px"
	 viewBox="0 0 2048 576" style="enable-background:new 0 0 2048 576;" xml:space="preserve">
<style type="text/css">
	.st0{fill:#FCFCFC;}
	.st1{fill:#EEE6FF;}
</style>
	<path class="st1" d="M76.3,264c45-1.4,58.1-110,130.8-119.3c50.2-6.4,72.8,41.6,116.2,29.1c48.1-14,37.3-78,89.5-117.5
		C478.2,6.7,548.3,67.1,623,33.1c89-40.5,145.6-196.9,99.6-268.4C628.9-380.7,36.6-291.1-40-36.7C-79.4,94.5,19.2,265.8,76.3,264z"
		/>
	<path class="st1" d="M1430.8,615.1c-10.7-49.3,35.9-116,86.1-124.6c43.3-7.4,58.6,33.8,109.9,36.6c65.2,3.6,87.7-60.4,164.9-100.8
		c90.4-47.3,233.7-50.8,285.8,20.2c43.4,59,19.7,164.1-33,225.4c-99.8,116.1-299.3,70.4-430.6,40.3
		C1532.3,693.5,1443.3,673.1,1430.8,615.1z"/>
</svg>
